<svg width="64" height="64" viewBox="0 0 64 64" fill="none" xmlns="http://www.w3.org/2000/svg">
<path d="M25.5 21C24.994 20.9911 24.4968 21.1332 24.072 21.4083C23.6471 21.6833 23.3139 22.0788 23.115 22.5442C22.916 23.0095 22.8603 23.5236 22.955 24.0208C23.0497 24.518 23.2905 24.9756 23.6466 25.3352C24.0026 25.6949 24.4579 25.9402 24.9541 26.0398C25.4503 26.1395 25.9649 26.0889 26.4322 25.8946C26.8995 25.7003 27.2983 25.371 27.5776 24.949C27.8568 24.5269 28.0039 24.0311 28 23.525C27.9962 22.8609 27.7323 22.2246 27.265 21.7526C26.7977 21.2806 26.1641 21.0105 25.5 21Z" fill="black"/>
<path d="M32.875 15.385C33.4418 15.384 33.9956 15.2152 34.4665 14.8999C34.9375 14.5846 35.3046 14.1369 35.5215 13.6133C35.7384 13.0897 35.7954 12.5135 35.6853 11.9575C35.5752 11.4016 35.3029 10.8906 34.9029 10.4892C34.5028 10.0877 33.9928 9.81366 33.4372 9.70164C32.8816 9.58961 32.3053 9.64461 31.7809 9.85968C31.2565 10.0748 30.8075 10.4403 30.4906 10.9102C30.1737 11.38 30.003 11.9332 30 12.5C29.998 12.8786 30.071 13.2538 30.2146 13.6041C30.3583 13.9543 30.5698 14.2727 30.837 14.5409C31.1043 14.8091 31.4219 15.0217 31.7717 15.1666C32.1214 15.3114 32.4964 15.3857 32.875 15.385V15.385Z" fill="black"/>
<path d="M44.335 14.695C43.995 15.12 43.635 15.55 43.26 15.975C45.6396 17.5002 47.6836 19.4943 49.2672 21.8354C50.8508 24.1766 51.9409 26.8158 52.471 29.5921C53.0011 32.3684 52.9601 35.2236 52.3504 37.9836C51.7407 40.7435 50.5752 43.3503 48.925 45.645C45.03 43.19 39.335 40.47 33 40.25C35.265 36.44 37.5 26.75 37.5 18.635C42.5 14.635 46.195 8.84999 45.5 8.10999C44.805 7.36999 44.675 10.37 32.325 17.37C31.1171 18.1667 30.2312 19.3662 29.825 20.755C29.6 21.755 28.605 25.535 27.93 27.63C26.995 26.585 24.605 26.63 23.31 28.215C22.81 28.8 20.505 31.82 19.13 33.33C17.755 34.84 18.875 34.54 19.83 34.04C21.4213 33.1186 22.9185 32.0435 24.3 30.83C25.23 33.83 25.48 38.73 26.115 40.865C22.1741 41.7257 18.4489 43.3773 15.165 45.72C13.1139 42.8955 11.8057 39.6008 11.3606 36.1386C10.9155 32.6765 11.3479 29.158 12.6179 25.9065C13.8879 22.6551 15.9548 19.7751 18.6286 17.5312C21.3025 15.2873 24.4975 13.7515 27.92 13.065C27.8566 12.4929 27.8938 11.9142 28.03 11.355C22.8793 12.2753 18.2104 14.9618 14.8265 18.9525C11.4426 22.9432 9.55526 27.9884 9.48922 33.2202C9.42318 38.4521 11.1826 43.5433 14.4647 47.6181C17.7468 51.6929 22.3464 54.4965 27.4722 55.5465C32.598 56.5965 37.9295 55.8273 42.5494 53.3712C47.1693 50.915 50.7888 46.9256 52.7852 42.0892C54.7816 37.2528 55.03 31.8719 53.4878 26.8721C51.9455 21.8723 48.709 17.5663 44.335 14.695V14.695ZM28.66 31.465C28.9373 32.1129 29.2879 32.7269 29.705 33.295C30.415 34.295 30.91 34.04 30.365 32.645C29.8699 31.3653 29.3058 30.1135 28.675 28.895C29.575 27.615 31.175 24.64 31.86 23.325C32.1713 28.9995 31.7817 34.6908 30.7 40.27C29.7476 40.3137 28.7981 40.4054 27.855 40.545C28.635 38.105 28.75 33.105 28.66 31.465Z" fill="black"/>
</svg>
