<svg width="154" height="64" viewBox="0 0 154 64" fill="none" xmlns="http://www.w3.org/2000/svg">
<path d="M67.69 48.18H65.8C65.205 48.18 64.995 48.005 64.995 47.425V42.82C64.99 42.7705 64.9656 42.7249 64.9273 42.6931C64.8889 42.6613 64.8397 42.6458 64.79 42.65H63.79C63.7404 42.6458 63.6911 42.6613 63.6528 42.6931C63.6144 42.7249 63.5901 42.7705 63.585 42.82V47.425C63.585 48.925 64.62 49.22 65.96 49.22C66.5439 49.2197 67.127 49.1779 67.705 49.095C67.86 49.095 67.91 49.035 67.91 48.915V48.355C67.9083 48.3286 67.901 48.3029 67.8887 48.2794C67.8765 48.256 67.8594 48.2354 67.8387 48.2189C67.818 48.2024 67.7941 48.1904 67.7685 48.1837C67.7429 48.1771 67.7161 48.1758 67.69 48.18Z" fill="black"/>
<path d="M78.235 42.7C77.5883 42.6008 76.9341 42.559 76.28 42.575C74.945 42.575 73.905 42.885 73.905 44.37V47.425C73.905 48.925 74.945 49.22 76.28 49.22C76.9341 49.236 77.5883 49.1942 78.235 49.095C78.39 49.095 78.44 49.035 78.44 48.915V48.355C78.4381 48.33 78.4313 48.3056 78.4199 48.2833C78.4086 48.261 78.393 48.2411 78.3739 48.2248C78.3548 48.2086 78.3328 48.1962 78.3089 48.1885C78.2851 48.1808 78.26 48.1779 78.235 48.18H76.14C75.54 48.18 75.325 48.005 75.325 47.425V46.295H78.115C78.14 46.297 78.1651 46.2941 78.1889 46.2864C78.2128 46.2787 78.2349 46.2664 78.2539 46.2501C78.273 46.2339 78.2886 46.214 78.2999 46.1917C78.3113 46.1693 78.3181 46.145 78.32 46.12V45.5C78.3149 45.45 78.2908 45.404 78.2526 45.3714C78.2144 45.3388 78.1651 45.3221 78.115 45.325H75.325V44.37C75.325 43.795 75.54 43.62 76.14 43.62H78.235C78.26 43.622 78.2851 43.6191 78.3089 43.6114C78.3328 43.6037 78.3548 43.5914 78.3739 43.5751C78.393 43.5589 78.4086 43.539 78.4199 43.5167C78.4313 43.4943 78.4381 43.47 78.44 43.445V42.885C78.44 42.76 78.39 42.715 78.235 42.7Z" fill="black"/>
<path d="M88.84 43.47C88.7104 43.2015 88.5077 42.9749 88.2552 42.8164C88.0027 42.6579 87.7106 42.5738 87.4125 42.5738C87.1143 42.5738 86.8222 42.6579 86.5697 42.8164C86.3172 42.9749 86.1146 43.2015 85.985 43.47L84.3 48.97C84.3 48.97 84.3 49.005 84.3 49.015C84.3018 49.0371 84.3082 49.0587 84.3186 49.0784C84.3289 49.0981 84.3432 49.1154 84.3605 49.1294C84.3778 49.1434 84.3977 49.1538 84.4191 49.1599C84.4405 49.166 84.4629 49.1677 84.485 49.165H85.58C85.6239 49.1629 85.6662 49.1474 85.7011 49.1206C85.7359 49.0938 85.7617 49.0569 85.775 49.015L86.245 47.355H88.61L89.085 49.015C89.0969 49.0577 89.1223 49.0954 89.1575 49.1225C89.1927 49.1495 89.2356 49.1644 89.28 49.165H90.37C90.3918 49.1678 90.414 49.166 90.4351 49.1599C90.4562 49.1537 90.4758 49.1432 90.4927 49.1292C90.5096 49.1151 90.5234 49.0977 90.5332 49.078C90.5431 49.0584 90.5488 49.0369 90.55 49.015C90.55 49.015 90.55 49.015 90.55 48.97L88.84 43.47ZM86.5 46.34L87.235 43.74C87.27 43.635 87.3 43.6 87.405 43.6C87.51 43.6 87.535 43.635 87.565 43.74L88.31 46.34H86.5Z" fill="black"/>
<path d="M100.455 46.42C100.855 46.3254 101.212 46.0969 101.464 45.7723C101.717 45.4476 101.851 45.0464 101.845 44.635V44.555C101.845 43.055 100.465 42.555 98.88 42.555C98.2116 42.5526 97.5437 42.591 96.88 42.67C96.675 42.695 96.55 42.76 96.55 42.935V49C96.5551 49.0509 96.5799 49.0977 96.6192 49.1304C96.6585 49.1632 96.709 49.1792 96.76 49.175H97.76C97.7844 49.177 97.8091 49.1741 97.8323 49.1662C97.8556 49.1584 97.877 49.146 97.8953 49.1296C97.9135 49.1132 97.9282 49.0932 97.9385 49.0709C97.9488 49.0487 97.9544 49.0245 97.955 49V46.6C98.195 46.6 98.605 46.64 98.87 46.64H99.015L100.5 49C100.55 49.085 100.595 49.175 100.705 49.175H101.96C102.045 49.175 102.085 49.13 102.085 49.07C102.093 49.0474 102.093 49.0225 102.085 49L100.455 46.42ZM100.425 44.635C100.425 45.405 99.925 45.635 98.88 45.635C98.705 45.635 98.13 45.635 97.965 45.605V43.655C98.15 43.655 98.665 43.62 98.88 43.62C99.91 43.62 100.425 43.9 100.425 44.555V44.635Z" fill="black"/>
<path d="M113.865 42.65H113C112.976 42.6464 112.952 42.648 112.928 42.6546C112.905 42.6613 112.884 42.6728 112.865 42.6884C112.847 42.704 112.832 42.7234 112.821 42.7452C112.811 42.767 112.805 42.7908 112.805 42.815V47.415C112.805 47.47 112.77 47.495 112.75 47.495C112.73 47.495 112.69 47.495 112.67 47.425L110.275 42.925C110.241 42.8344 110.178 42.7576 110.096 42.7069C110.013 42.6562 109.916 42.6344 109.82 42.645H108.71C108.61 42.638 108.512 42.6701 108.435 42.7345C108.359 42.7989 108.31 42.8905 108.3 42.99V49C108.302 49.025 108.309 49.0493 108.32 49.0717C108.331 49.094 108.347 49.1139 108.366 49.1302C108.385 49.1464 108.407 49.1587 108.431 49.1664C108.455 49.1741 108.48 49.1771 108.505 49.175H109.38C109.404 49.1764 109.429 49.1729 109.452 49.1648C109.475 49.1568 109.496 49.1442 109.514 49.128C109.532 49.1117 109.547 49.092 109.557 49.0701C109.568 49.0481 109.574 49.0243 109.575 49V44.6C109.575 44.545 109.575 44.525 109.625 44.525C109.675 44.525 109.685 44.525 109.72 44.6L112 48.835C112.055 48.9499 112.147 49.0432 112.261 49.1003C112.375 49.1573 112.505 49.1748 112.63 49.15H113.665C113.766 49.1569 113.865 49.1242 113.941 49.0587C114.018 48.9933 114.066 48.9004 114.075 48.8V42.8C114.073 42.7756 114.065 42.7519 114.053 42.7307C114.041 42.7094 114.024 42.691 114.004 42.6767C113.985 42.6625 113.962 42.6527 113.938 42.6481C113.914 42.6435 113.889 42.6441 113.865 42.65V42.65Z" fill="black"/>
<path d="M121.86 42.65H120.86C120.745 42.65 120.655 42.715 120.655 42.815V49C120.657 49.025 120.664 49.0494 120.675 49.0717C120.686 49.094 120.702 49.1139 120.721 49.1302C120.74 49.1464 120.762 49.1588 120.786 49.1665C120.81 49.1742 120.835 49.1771 120.86 49.175H121.86C121.911 49.1792 121.962 49.1632 122.001 49.1305C122.04 49.0977 122.065 49.0509 122.07 49V42.815C122.07 42.715 122 42.65 121.86 42.65Z" fill="black"/>
<path d="M134.23 42.65H133.345C133.321 42.6464 133.297 42.648 133.273 42.6546C133.25 42.6612 133.229 42.6727 133.21 42.6884C133.192 42.704 133.177 42.7234 133.166 42.7452C133.156 42.767 133.15 42.7908 133.15 42.815V47.415C133.15 47.47 133.12 47.495 133.1 47.495C133.081 47.4929 133.062 47.4852 133.047 47.4727C133.032 47.4603 133.021 47.4437 133.015 47.425L130.62 42.925C130.587 42.8338 130.524 42.7566 130.441 42.7058C130.359 42.6549 130.261 42.6335 130.165 42.645H129.055C128.955 42.638 128.857 42.6701 128.78 42.7345C128.704 42.7989 128.655 42.8905 128.645 42.99V49C128.65 49.0499 128.674 49.096 128.712 49.1286C128.751 49.1612 128.8 49.1778 128.85 49.175H129.725C129.749 49.1763 129.774 49.1729 129.797 49.1648C129.82 49.1567 129.841 49.1442 129.859 49.128C129.877 49.1117 129.892 49.092 129.902 49.0701C129.913 49.0481 129.919 49.0243 129.92 49V44.6C129.92 44.545 129.92 44.525 129.97 44.525C130.02 44.525 130.035 44.525 130.065 44.6L132.345 48.86C132.4 48.9749 132.492 49.0682 132.606 49.1252C132.72 49.1823 132.85 49.1998 132.975 49.175H134C134.101 49.182 134.201 49.1494 134.278 49.0841C134.356 49.0187 134.405 48.9258 134.415 48.825V42.825C134.415 42.8011 134.41 42.7775 134.401 42.7556C134.391 42.7337 134.378 42.714 134.36 42.6976C134.343 42.6812 134.322 42.6685 134.3 42.6603C134.278 42.6521 134.254 42.6486 134.23 42.65V42.65Z" fill="black"/>
<path d="M145.79 42.735C145.058 42.6287 144.32 42.5752 143.58 42.575C142.355 42.575 140.795 43.2 140.795 45.275V46.535C140.795 48.6 142.44 49.22 143.55 49.22C144.3 49.2349 145.049 49.1848 145.79 49.07C145.925 49.07 145.985 48.975 145.985 48.86V45.92C145.983 45.895 145.976 45.8707 145.965 45.8483C145.954 45.826 145.938 45.8061 145.919 45.7899C145.9 45.7736 145.878 45.7613 145.854 45.7536C145.83 45.7459 145.805 45.743 145.78 45.745H144.78C144.756 45.7437 144.731 45.7471 144.708 45.7552C144.685 45.7633 144.664 45.7758 144.646 45.792C144.628 45.8083 144.613 45.828 144.603 45.8499C144.592 45.8719 144.586 45.8957 144.585 45.92V48.15C144.27 48.15 143.95 48.18 143.585 48.18C142.98 48.18 142.27 47.775 142.27 46.535V45.275C142.27 44.03 142.925 43.62 143.615 43.62C144.615 43.62 145.31 43.655 145.785 43.69H145.815C145.98 43.69 146.02 43.63 146.02 43.505V42.92C146 42.805 145.925 42.76 145.79 42.735Z" fill="black"/>
<path d="M86.075 38.77C86.2524 38.7754 86.4247 38.7108 86.5548 38.5901C86.6849 38.4693 86.7622 38.3023 86.77 38.125V26.815C86.77 22.99 84.82 20.72 79.985 20.72C78.1782 20.7114 76.3737 20.8519 74.59 21.14C74.09 21.21 73.855 21.405 73.855 21.76V22.895C73.855 23.315 74.17 23.395 74.485 23.395H74.655C76.05 23.265 77.72 23.14 79.985 23.14C82.7 23.14 83.71 24.075 83.71 26.8V28.095H81.135C74.935 28.095 72.745 29.845 72.745 33.345V33.735C72.745 37.78 75.46 38.98 78.415 38.98C80.3071 38.9144 82.1515 38.369 83.775 37.395V38.11C83.7841 38.2877 83.8624 38.4548 83.9933 38.5754C84.1242 38.696 84.2971 38.7604 84.475 38.755L86.075 38.77ZM83.71 35.37C82.2716 36.1767 80.6585 36.6211 79.01 36.665C77.01 36.665 75.805 36.05 75.805 33.715V33.325C75.805 31.025 76.92 30.15 81.135 30.15H83.71V35.37Z" fill="black"/>
<path d="M97.26 20.72C95.8954 20.7245 94.5331 20.8331 93.185 21.045V15C93.1785 14.8311 93.1054 14.6716 92.9818 14.5564C92.8581 14.4412 92.6939 14.3796 92.525 14.385H90.75C90.6678 14.3823 90.5859 14.3962 90.5093 14.426C90.4326 14.4557 90.3627 14.5007 90.3039 14.5581C90.245 14.6156 90.1984 14.6843 90.1668 14.7603C90.1352 14.8362 90.1193 14.9177 90.12 15V37.7C90.12 38.155 90.225 38.35 90.855 38.445C92.9692 38.8204 95.1127 39.0062 97.26 39C102.5 39 104.85 35.855 104.85 31V28.66C104.85 23.575 102.305 20.72 97.26 20.72ZM101.76 30.995C101.76 34.525 100.68 36.495 97.26 36.495C96.075 36.495 94.37 36.4 93.185 36.3V23.445C94.5364 23.2748 95.8981 23.1996 97.26 23.22C100.67 23.22 101.76 25.22 101.76 28.66V30.995Z" fill="black"/>
<path d="M121.565 20.95H119.86C119.684 20.9507 119.515 21.0174 119.387 21.1369C119.258 21.2564 119.179 21.4199 119.165 21.595V35.27C117.705 36.0176 116.103 36.4487 114.465 36.535C111.82 36.535 110.635 35.535 110.635 32.255V21.595C110.627 21.4177 110.55 21.2506 110.42 21.1299C110.29 21.0092 110.117 20.9446 109.94 20.95H108.27C108.092 20.9432 107.918 21.0073 107.787 21.1281C107.656 21.249 107.578 21.4168 107.57 21.595V32.255C107.57 36.565 109.45 38.995 113.63 38.995C115.575 38.9896 117.484 38.4723 119.165 37.495V38.115C119.165 38.201 119.182 38.2861 119.215 38.3654C119.249 38.4446 119.298 38.5164 119.359 38.5765C119.421 38.6366 119.494 38.6838 119.574 38.7153C119.654 38.7468 119.739 38.762 119.825 38.76H121.565C121.651 38.762 121.736 38.7468 121.816 38.7153C121.896 38.6838 121.969 38.6366 122.031 38.5765C122.092 38.5164 122.141 38.4446 122.175 38.3654C122.208 38.2861 122.225 38.201 122.225 38.115V21.595C122.22 21.423 122.148 21.2597 122.025 21.1394C121.902 21.0191 121.737 20.9512 121.565 20.95V20.95Z" fill="black"/>
<path d="M129 38.125V15C129.001 14.9182 128.985 14.8371 128.954 14.7615C128.922 14.6859 128.876 14.6174 128.818 14.56C128.76 14.5027 128.69 14.4576 128.614 14.4275C128.538 14.3975 128.457 14.383 128.375 14.385H126.565C126.482 14.3809 126.399 14.3938 126.322 14.423C126.244 14.4522 126.174 14.497 126.114 14.5547C126.054 14.6124 126.007 14.6816 125.976 14.7582C125.944 14.8349 125.929 14.9172 125.93 15V38.125C125.929 38.2084 125.944 38.2913 125.974 38.3688C126.005 38.4464 126.051 38.5171 126.109 38.577C126.167 38.6369 126.236 38.6848 126.313 38.7179C126.389 38.751 126.472 38.7687 126.555 38.77H128.365C128.449 38.77 128.533 38.7533 128.61 38.7208C128.688 38.6882 128.758 38.6405 128.818 38.5805C128.877 38.5205 128.923 38.4493 128.955 38.3711C128.986 38.2929 129.001 38.2093 129 38.125Z" fill="black"/>
<path d="M139.23 20.72C137.423 20.7114 135.619 20.8519 133.835 21.14C133.335 21.21 133.1 21.405 133.1 21.76V22.895C133.1 23.315 133.415 23.395 133.73 23.395H133.9C135.295 23.265 136.965 23.14 139.23 23.14C141.945 23.14 142.955 24.075 142.955 26.8V28.095H140.38C134.18 28.095 131.99 29.845 131.99 33.345V33.735C132 37.795 134.705 39 137.66 39C139.546 38.9295 141.383 38.3825 143 37.41V38.125C143.009 38.3027 143.087 38.4698 143.218 38.5904C143.349 38.711 143.522 38.7754 143.7 38.77H145.3C145.478 38.7767 145.652 38.7127 145.783 38.5919C145.914 38.471 145.992 38.3032 146 38.125V26.815C146 23 144.065 20.72 139.23 20.72ZM142.955 35.37C141.517 36.1767 139.904 36.6211 138.255 36.665C136.255 36.665 135.05 36.05 135.05 33.715V33.325C135.05 31.025 136.165 30.15 140.38 30.15H142.955V35.37Z" fill="black"/>
<path d="M70.16 36.695H68.21C66.82 36.695 66.33 36.44 66.33 34.655V23.345H70.09C70.178 23.3483 70.2658 23.3343 70.3484 23.3037C70.4309 23.2731 70.5067 23.2265 70.5712 23.1666C70.6358 23.1067 70.6879 23.0346 70.7246 22.9546C70.7612 22.8745 70.7818 22.788 70.785 22.7V21.595C70.7818 21.507 70.7612 21.4205 70.7246 21.3404C70.6879 21.2604 70.6358 21.1883 70.5712 21.1284C70.5067 21.0685 70.4309 21.0219 70.3484 20.9913C70.2658 20.9607 70.178 20.9466 70.09 20.95H66.33V17.42C66.3355 17.2805 66.2863 17.1445 66.1929 17.0408C66.0995 16.9371 65.9693 16.874 65.83 16.865H65.725L63.915 17.125C63.7485 17.1371 63.5923 17.2101 63.4761 17.3299C63.36 17.4498 63.2919 17.6082 63.285 17.775V34.655C63.285 38.22 64.82 38.995 68.02 38.995C68.7776 38.9877 69.534 38.9343 70.285 38.835C70.735 38.77 70.91 38.575 70.91 38.285V37.15C70.89 36.825 70.65 36.695 70.16 36.695Z" fill="black"/>
<path d="M23.955 21C23.4508 21 22.9579 21.1498 22.539 21.4303C22.1201 21.7109 21.7939 22.1095 21.6019 22.5758C21.4098 23.042 21.3606 23.5547 21.4605 24.0489C21.5603 24.5431 21.8047 24.9966 22.1626 25.3517C22.5205 25.7068 22.9759 25.9476 23.4709 26.0435C23.9658 26.1394 24.4782 26.0862 24.9429 25.8905C25.4075 25.6948 25.8036 25.3655 26.0808 24.9443C26.3581 24.5232 26.5039 24.0292 26.5 23.525C26.496 22.8531 26.226 22.2101 25.749 21.7369C25.272 21.2636 24.6269 20.9987 23.955 21V21Z" fill="black"/>
<path d="M31.36 15.385C31.9274 15.387 32.4827 15.2207 32.9556 14.9072C33.4286 14.5937 33.798 14.1471 34.0172 13.6237C34.2364 13.1003 34.2955 12.5237 34.1871 11.9667C34.0787 11.4098 33.8077 10.8974 33.4082 10.4945C33.0087 10.0915 32.4987 9.816 31.9427 9.70276C31.3867 9.58952 30.8096 9.64363 30.2844 9.85825C29.7591 10.0729 29.3093 10.4384 28.9917 10.9086C28.6741 11.3788 28.503 11.9326 28.5 12.5C28.498 12.8773 28.5705 13.2513 28.7132 13.6006C28.8559 13.9499 29.0661 14.2676 29.3318 14.5356C29.5974 14.8035 29.9133 15.0165 30.2613 15.1622C30.6093 15.308 30.9827 15.3837 31.36 15.385V15.385Z" fill="black"/>
<path d="M42.815 14.695C42.475 15.12 42.115 15.55 41.74 15.975C44.1207 17.4993 46.1658 19.4928 47.7502 21.8339C49.3347 24.175 50.4253 26.8145 50.9555 29.5913C51.4856 32.368 51.4442 35.2236 50.8338 37.9838C50.2233 40.744 49.0567 43.3508 47.405 45.645C43.5 43.19 37.815 40.47 31.455 40.25C33.72 36.44 35.955 26.75 35.955 18.635C40.955 14.635 44.65 8.84999 43.955 8.10999C43.26 7.36999 43.13 10.37 30.78 17.37C29.5737 18.1683 28.6882 19.3672 28.28 20.755C28.055 21.755 27.06 25.535 26.39 27.63C25.45 26.585 23.065 26.63 21.765 28.215C21.265 28.8 18.965 31.82 17.59 33.33C16.215 34.84 17.33 34.54 18.285 34.04C19.8763 33.1186 21.3735 32.0435 22.755 30.83C23.685 33.83 23.935 38.73 24.57 40.865C20.6291 41.7257 16.9039 43.3773 13.62 45.72C11.5688 42.8938 10.2612 39.5972 9.81756 36.1334C9.3739 32.6697 9.80839 29.1499 11.0811 25.898C12.3537 22.6461 14.4237 19.7665 17.1007 17.524C19.7776 15.2815 22.9754 13.7481 26.4 13.065C26.331 12.4936 26.3649 11.9144 26.5 11.355C21.349 12.2744 16.6794 14.9603 13.2947 18.9507C9.91009 22.941 8.022 27.9862 7.95533 33.2183C7.88867 38.4503 9.64759 43.542 12.9295 47.6173C16.2114 51.6926 20.811 54.4966 25.9369 55.5469C31.0629 56.5973 36.3946 55.8283 41.0149 53.3722C45.6351 50.9161 49.2548 46.9265 51.2513 42.0899C53.2478 37.2533 53.4961 31.8721 51.9537 26.8722C50.4112 21.8722 47.1743 17.5662 42.8 14.695H42.815ZM27.14 31.465C27.4194 32.1119 27.7699 32.7256 28.185 33.295C28.895 34.295 29.39 34.04 28.845 32.645C28.3521 31.3644 27.7879 30.1125 27.155 28.895C28.06 27.615 29.655 24.64 30.345 23.325C30.6557 28.9997 30.2644 34.6911 29.18 40.27C28.2277 40.3139 27.2781 40.4057 26.335 40.545C27.12 38.105 27.235 33.105 27.14 31.465Z" fill="black"/>
</svg>
